<svg id="Layer_1" data-name="Layer 1" xmlns="http://www.w3.org/2000/svg" viewBox="0 0 153.9 36.93"><defs><style>.cls-1{fill:#1a476c;}.cls-2{fill:#f75b1e;}</style></defs><path class="cls-1" d="M77.07,15.5c-.77-.15-2.54-.31-2.54-1.39,0-.81,1.12-1.09,1.77-1.09a6.92,6.92,0,0,1,3,.78l1.89-3.59a12.53,12.53,0,0,0-5.23-1c-3.47,0-7,1.74-7,5.64,0,2.85,1.76,3.71,3.53,4.18s3.53.53,3.53,1.76c0,.87-1,1.21-1.77,1.21a9,9,0,0,1-4.45-1.61l-2,3.93a12.29,12.29,0,0,0,6.41,1.83c3.69,0,7.49-1.73,7.49-5.91C81.68,17.27,79.7,16,77.07,15.5Z" transform="translate(0 0)"/><path class="cls-1" d="M82.76,17.82a8.38,8.38,0,0,0,8.64,8.3,8.87,8.87,0,0,0,4-.9V20.45a4.31,4.31,0,0,1-2.82,1.09,3.78,3.78,0,0,1-4-3.9,3.82,3.82,0,0,1,3.87-3.87,5,5,0,0,1,2.92,1.11V10.11a7.72,7.72,0,0,0-3.72-.93C86.67,9.18,82.76,12.71,82.76,17.82Z" transform="translate(0 0)"/><path class="cls-1" d="M105.74,9.18c-5.17,0-8.79,3.19-8.79,8.49,0,5.48,3.93,8.45,9.2,8.45,3.62,0,7.18-1.7,8.08-5.45h-5.42a2.83,2.83,0,0,1-2.7,1.46c-2.32,0-3.53-1.24-3.53-3.53h11.86V18C114.44,12.59,111.25,9.18,105.74,9.18Zm-3.06,6.17a3.38,3.38,0,0,1,6.53,0Z" transform="translate(0 0)"/><path class="cls-1" d="M127.32,9.18a5.49,5.49,0,0,0-5.08,2.57h-.06v-2h-5.64V25.59h5.64V17.36c0-2,.65-3.69,2.94-3.69,2.78,0,2.54,2.67,2.54,4.18v7.74h5.63V15.78C133.29,11.88,131.59,9.18,127.32,9.18Z" transform="translate(0 0)"/><polygon class="cls-1" points="142.54 9.71 142.54 4.94 136.9 4.94 136.9 9.71 135.48 9.71 134.67 14.36 136.9 14.36 136.9 25.59 142.54 25.59 142.54 14.36 146.13 14.36 146.94 9.71 142.54 9.71"/><polygon class="cls-1" points="51.33 2.25 42.35 25.59 48.79 25.59 50.17 22.11 52.29 16.25 54.58 9.46 54.64 9.46 56.91 16.25 55.12 16.25 53.4 20.82 58.52 20.82 58.97 22.11 60.28 25.59 66.75 25.59 57.96 2.25 51.33 2.25"/><path class="cls-2" d="M5.69,31.34a14.78,14.78,0,0,1-2.37-3.09H0a17.72,17.72,0,0,0,8.56,8.68V33.58A14.54,14.54,0,0,1,5.69,31.34Z" transform="translate(0 0)"/><polygon class="cls-1" points="20.28 8.33 6.67 21.94 8.77 24.03 24.47 8.33 20.28 8.33"/><polygon class="cls-1" points="26.56 8.33 9.81 25.08 11.91 27.17 28.65 10.43 28.65 8.33 26.56 8.33"/><polygon class="cls-1" points="28.65 12.52 12.95 28.22 15.05 30.31 28.65 16.71 28.65 12.52"/><path class="cls-1" d="M31.79,5.19A17.75,17.75,0,0,0,1.51,18.73l3.08-3.08A14.8,14.8,0,1,1,21.33,32.4l-3.08,3.08A17.76,17.76,0,0,0,31.79,5.19Z" transform="translate(0 0)"/><path class="cls-2" d="M13.57,31.42a14.77,14.77,0,0,1-8-8H2.4A17.72,17.72,0,0,0,13.57,34.58Z" transform="translate(0 0)"/><polygon class="cls-1" points="23.42 24.03 15.05 32.4 15.05 36.59 23.42 28.22 23.42 24.03"/><polygon class="cls-1" points="8.77 13.57 12.95 13.57 4.58 21.94 0.4 21.94 8.77 13.57"/><path class="cls-1" d="M153.9,7.34a2.53,2.53,0,1,1-2.52-2.46A2.47,2.47,0,0,1,153.9,7.34Zm-4.42,0a1.9,1.9,0,1,0,3.8,0,1.9,1.9,0,1,0-3.8,0ZM151,8.63h-.57V6.17a4.66,4.66,0,0,1,1-.08,1.54,1.54,0,0,1,.85.18.68.68,0,0,1,.25.54.63.63,0,0,1-.52.57v0a.7.7,0,0,1,.45.6,2.39,2.39,0,0,0,.18.62H152a1.9,1.9,0,0,1-.19-.6c-.05-.27-.2-.39-.52-.39H151Zm0-1.4h.27c.31,0,.57-.1.57-.36s-.17-.37-.53-.37a1.09,1.09,0,0,0-.31,0Z" transform="translate(0 0)"/><path class="cls-1" d="M60.1,30.81a1.06,1.06,0,0,0-.92.45,2.09,2.09,0,0,0-.33,1.25c0,1.12.42,1.67,1.25,1.67a3.87,3.87,0,0,0,1.28-.26v.89a3.57,3.57,0,0,1-1.38.26,2.12,2.12,0,0,1-1.67-.66,2.85,2.85,0,0,1-.57-1.9A3.1,3.1,0,0,1,58,31.14a2,2,0,0,1,.82-.9,2.38,2.38,0,0,1,1.24-.31,3.4,3.4,0,0,1,1.46.35l-.34.86a5.48,5.48,0,0,0-.56-.23A1.62,1.62,0,0,0,60.1,30.81Z" transform="translate(0 0)"/><path class="cls-1" d="M64.49,31.11a1.69,1.69,0,0,1,.35,0l-.08,1a1.26,1.26,0,0,0-.3,0,1.05,1.05,0,0,0-.78.26.91.91,0,0,0-.28.71v2h-1V31.18h.79l.15.64h.05a1.5,1.5,0,0,1,.48-.52A1.18,1.18,0,0,1,64.49,31.11Z" transform="translate(0 0)"/><path class="cls-1" d="M67.27,35.07a2,2,0,0,1-1.45-.51,2,2,0,0,1-.52-1.44,2.12,2.12,0,0,1,.48-1.49,1.72,1.72,0,0,1,1.33-.52,1.67,1.67,0,0,1,1.26.46,1.73,1.73,0,0,1,.45,1.27v.51H66.36a1,1,0,0,0,.26.69.93.93,0,0,0,.69.25,2.84,2.84,0,0,0,.66-.07,3.11,3.11,0,0,0,.64-.23v.81A2.28,2.28,0,0,1,68,35,3.91,3.91,0,0,1,67.27,35.07Zm-.15-3.22a.66.66,0,0,0-.52.21,1,1,0,0,0-.22.59h1.47a1,1,0,0,0-.2-.59A.71.71,0,0,0,67.12,31.85Z" transform="translate(0 0)"/><path class="cls-1" d="M70.88,35.07a1.25,1.25,0,0,1-1.06-.53,2.94,2.94,0,0,1,0-2.91,1.27,1.27,0,0,1,1.08-.52,1.23,1.23,0,0,1,1.1.56h0A4.48,4.48,0,0,1,72,30.9V29.68h1V35h-.8l-.2-.5h0A1.2,1.2,0,0,1,70.88,35.07Zm.37-.83a.69.69,0,0,0,.58-.24,1.27,1.27,0,0,0,.21-.79V33.1a1.62,1.62,0,0,0-.19-.88.7.7,0,0,0-.62-.27.61.61,0,0,0-.54.3,1.57,1.57,0,0,0-.19.86,1.47,1.47,0,0,0,.19.84A.65.65,0,0,0,71.25,34.24Z" transform="translate(0 0)"/><path class="cls-1" d="M74.06,30.19q0-.51.57-.51c.37,0,.56.17.56.51a.48.48,0,0,1-.14.38.59.59,0,0,1-.42.13Q74.06,30.7,74.06,30.19ZM75.15,35H74.1V31.18h1.05Z" transform="translate(0 0)"/><path class="cls-1" d="M77.85,34.24a2.2,2.2,0,0,0,.65-.12v.77a2.24,2.24,0,0,1-1,.18,1.17,1.17,0,0,1-.91-.32,1.38,1.38,0,0,1-.29-1V32h-.5v-.44l.58-.35.3-.81h.66v.82h1.07V32H77.39V33.8a.42.42,0,0,0,.13.33A.49.49,0,0,0,77.85,34.24Z" transform="translate(0 0)"/><path class="cls-1" d="M78.94,33.55v-.86h1.83v.86Z" transform="translate(0 0)"/><path class="cls-1" d="M81.61,30h1.56a3,3,0,0,1,1.54.3,1.08,1.08,0,0,1,.48,1A1.21,1.21,0,0,1,85,32a.86.86,0,0,1-.56.35v0a1.08,1.08,0,0,1,.69.4,1.28,1.28,0,0,1,.21.77,1.3,1.3,0,0,1-.5,1.07,2.16,2.16,0,0,1-1.34.38H81.61Zm1.06,2h.62a1.12,1.12,0,0,0,.62-.13.5.5,0,0,0,.19-.44.45.45,0,0,0-.21-.42,1.38,1.38,0,0,0-.66-.12h-.56Zm0,.84v1.3h.69A1.06,1.06,0,0,0,84,34a.64.64,0,0,0,.21-.52c0-.41-.3-.62-.89-.62Z" transform="translate(0 0)"/><path class="cls-1" d="M88.66,35l-.2-.52h0a1.7,1.7,0,0,1-.54.46,1.87,1.87,0,0,1-.73.13,1.15,1.15,0,0,1-.86-.32,1.17,1.17,0,0,1-.32-.89,1,1,0,0,1,.42-.9,2.54,2.54,0,0,1,1.29-.32l.66,0v-.17a.52.52,0,0,0-.59-.58,2.62,2.62,0,0,0-1.08.28l-.35-.71a3.12,3.12,0,0,1,1.47-.34,1.86,1.86,0,0,1,1.18.33,1.27,1.27,0,0,1,.41,1V35Zm-.31-1.77H88a1.32,1.32,0,0,0-.68.17.5.5,0,0,0-.22.45c0,.3.17.44.5.44a.77.77,0,0,0,.58-.2.73.73,0,0,0,.22-.56Z" transform="translate(0 0)"/><path class="cls-1" d="M93.13,33.86a1.06,1.06,0,0,1-.41.9,2.08,2.08,0,0,1-1.23.31,3.69,3.69,0,0,1-.71-.06,2.51,2.51,0,0,1-.55-.17V34a3.93,3.93,0,0,0,.66.23,2.65,2.65,0,0,0,.64.09c.38,0,.57-.1.57-.32a.26.26,0,0,0-.08-.2.88.88,0,0,0-.26-.18l-.49-.23a2.91,2.91,0,0,1-.65-.34.86.86,0,0,1-.3-.36,1.21,1.21,0,0,1-.09-.5.92.92,0,0,1,.39-.79,2,2,0,0,1,1.12-.27,3.15,3.15,0,0,1,1.34.3l-.31.75a5.21,5.21,0,0,0-.54-.2,1.44,1.44,0,0,0-.51-.08c-.3,0-.46.08-.46.25a.3.3,0,0,0,.15.24,3.84,3.84,0,0,0,.65.3,3.24,3.24,0,0,1,.66.34,1.15,1.15,0,0,1,.31.36A1.22,1.22,0,0,1,93.13,33.86Z" transform="translate(0 0)"/><path class="cls-1" d="M95.67,35.07a2,2,0,0,1-1.44-.51,1.91,1.91,0,0,1-.52-1.44,2.12,2.12,0,0,1,.48-1.49,1.7,1.7,0,0,1,1.33-.52,1.67,1.67,0,0,1,1.26.46,1.73,1.73,0,0,1,.45,1.27v.51H94.76A1,1,0,0,0,95,34a.9.9,0,0,0,.69.25,2.76,2.76,0,0,0,.65-.07A3.11,3.11,0,0,0,97,34v.81a2.21,2.21,0,0,1-.58.2A4,4,0,0,1,95.67,35.07Zm-.15-3.22a.67.67,0,0,0-.52.21,1,1,0,0,0-.21.59h1.46a.84.84,0,0,0-.2-.59A.69.69,0,0,0,95.52,31.85Z" transform="translate(0 0)"/><path class="cls-1" d="M99.28,35.07a1.23,1.23,0,0,1-1-.53,2.36,2.36,0,0,1-.39-1.45,2.41,2.41,0,0,1,.39-1.46,1.27,1.27,0,0,1,1.08-.52,1.23,1.23,0,0,1,1.1.56h0a3.73,3.73,0,0,1-.08-.77V29.68h1V35h-.8l-.2-.5h0A1.2,1.2,0,0,1,99.28,35.07Zm.37-.83a.71.71,0,0,0,.59-.24,1.35,1.35,0,0,0,.2-.79V33.1a1.53,1.53,0,0,0-.19-.88.7.7,0,0,0-.62-.27.61.61,0,0,0-.54.3,1.57,1.57,0,0,0-.19.86,1.47,1.47,0,0,0,.19.84A.65.65,0,0,0,99.65,34.24Z" transform="translate(0 0)"/><path class="cls-1" d="M106.53,30.81a1.09,1.09,0,0,0-.93.45,2.09,2.09,0,0,0-.33,1.25c0,1.12.42,1.67,1.26,1.67a3.82,3.82,0,0,0,1.27-.26v.89a3.56,3.56,0,0,1-1.37.26,2.1,2.1,0,0,1-1.67-.66,2.86,2.86,0,0,1-.58-1.9,3.1,3.1,0,0,1,.29-1.37,2.09,2.09,0,0,1,.81-.9,2.42,2.42,0,0,1,1.25-.31,3.43,3.43,0,0,1,1.46.35l-.34.86c-.19-.09-.38-.16-.57-.23A1.52,1.52,0,0,0,106.53,30.81Z" transform="translate(0 0)"/><path class="cls-1" d="M112.26,33.08a2.05,2.05,0,0,1-.5,1.46,1.77,1.77,0,0,1-1.37.53,1.94,1.94,0,0,1-1-.24,1.61,1.61,0,0,1-.64-.7,2.32,2.32,0,0,1-.23-1.05,2,2,0,0,1,.49-1.46,1.81,1.81,0,0,1,1.37-.51,2,2,0,0,1,1,.23A1.65,1.65,0,0,1,112,32,2.32,2.32,0,0,1,112.26,33.08Zm-2.65,0a1.66,1.66,0,0,0,.19.86.68.68,0,0,0,.61.29.66.66,0,0,0,.6-.29,1.64,1.64,0,0,0,.18-.86,1.6,1.6,0,0,0-.18-.85.68.68,0,0,0-.61-.28.65.65,0,0,0-.6.28A1.6,1.6,0,0,0,109.61,33.08Z" transform="translate(0 0)"/><path class="cls-1" d="M115.78,33.86a1.06,1.06,0,0,1-.4.9,2.08,2.08,0,0,1-1.23.31,3.69,3.69,0,0,1-.71-.06,2.51,2.51,0,0,1-.55-.17V34a3.64,3.64,0,0,0,.66.23,2.65,2.65,0,0,0,.64.09c.38,0,.56-.1.56-.32a.26.26,0,0,0-.07-.2,1,1,0,0,0-.26-.18l-.49-.23a2.7,2.7,0,0,1-.65-.34.86.86,0,0,1-.3-.36,1.21,1.21,0,0,1-.09-.5.92.92,0,0,1,.39-.79,2,2,0,0,1,1.12-.27,3.15,3.15,0,0,1,1.34.3l-.31.75a5.21,5.21,0,0,0-.54-.2,1.44,1.44,0,0,0-.51-.08c-.31,0-.46.08-.46.25a.3.3,0,0,0,.15.24,3.84,3.84,0,0,0,.65.3,3.24,3.24,0,0,1,.66.34,1,1,0,0,1,.3.36A1.07,1.07,0,0,1,115.78,33.86Z" transform="translate(0 0)"/><path class="cls-1" d="M116.55,30.19q0-.51.57-.51t.57.51a.52.52,0,0,1-.14.38.61.61,0,0,1-.43.13Q116.55,30.7,116.55,30.19ZM117.64,35h-1V31.18h1Z" transform="translate(0 0)"/><path class="cls-1" d="M122.06,31.18v.53l-.6.15a1,1,0,0,1,.16.57,1.16,1.16,0,0,1-.42,1,1.88,1.88,0,0,1-1.2.35h-.18l-.16,0a.36.36,0,0,0-.16.27c0,.15.19.23.58.23h.65a1.45,1.45,0,0,1,1,.27,1,1,0,0,1,.33.79,1.18,1.18,0,0,1-.55,1,2.91,2.91,0,0,1-1.61.37,2.18,2.18,0,0,1-1.22-.28.87.87,0,0,1-.42-.78.84.84,0,0,1,.21-.58,1.3,1.3,0,0,1,.63-.33.72.72,0,0,1-.28-.22.56.56,0,0,1-.12-.33.57.57,0,0,1,.13-.37,1.48,1.48,0,0,1,.37-.28,1.08,1.08,0,0,1-.48-.42,1.25,1.25,0,0,1-.18-.68,1.2,1.2,0,0,1,.41-1,1.75,1.75,0,0,1,1.16-.34l.38,0,.29.05Zm-3,4.36a.39.39,0,0,0,.21.34,1.14,1.14,0,0,0,.58.12,2.06,2.06,0,0,0,.87-.15.49.49,0,0,0,.32-.42.29.29,0,0,0-.19-.3,1.43,1.43,0,0,0-.58-.08h-.54a.82.82,0,0,0-.48.13A.41.41,0,0,0,119.11,35.54Zm.38-3.11a.79.79,0,0,0,.14.49.52.52,0,0,0,.43.18.5.5,0,0,0,.43-.18.79.79,0,0,0,.14-.49q0-.69-.57-.69T119.49,32.43Z" transform="translate(0 0)"/><path class="cls-1" d="M126.22,35h-1V32.77a1.11,1.11,0,0,0-.14-.62.54.54,0,0,0-.47-.21.71.71,0,0,0-.63.29,1.82,1.82,0,0,0-.2,1V35h-1V31.18h.79l.14.49h.06a1.08,1.08,0,0,1,.48-.42,1.59,1.59,0,0,1,.7-.14,1.34,1.34,0,0,1,1,.36,1.44,1.44,0,0,1,.35,1Z" transform="translate(0 0)"/><path class="cls-1" d="M129,35.07a2,2,0,0,1-1.44-.51,1.91,1.91,0,0,1-.52-1.44,2.12,2.12,0,0,1,.48-1.49,2,2,0,0,1,2.59-.06,1.73,1.73,0,0,1,.45,1.27v.51h-2.47a1,1,0,0,0,.27.69.9.9,0,0,0,.69.25,2.76,2.76,0,0,0,.65-.07,3.11,3.11,0,0,0,.64-.23v.81a2.34,2.34,0,0,1-.58.2A4,4,0,0,1,129,35.07Zm-.15-3.22a.67.67,0,0,0-.52.21,1,1,0,0,0-.21.59h1.46a.89.89,0,0,0-.2-.59A.69.69,0,0,0,128.87,31.85Z" transform="translate(0 0)"/><path class="cls-1" d="M132.63,35.07a1.23,1.23,0,0,1-1-.53,2.36,2.36,0,0,1-.39-1.45,2.41,2.41,0,0,1,.39-1.46,1.27,1.27,0,0,1,1.08-.52,1.23,1.23,0,0,1,1.1.56h0a3.73,3.73,0,0,1-.08-.77V29.68h1V35H134l-.2-.5h0A1.2,1.2,0,0,1,132.63,35.07Zm.37-.83a.71.71,0,0,0,.59-.24,1.35,1.35,0,0,0,.2-.79V33.1a1.53,1.53,0,0,0-.19-.88A.7.7,0,0,0,133,32a.61.61,0,0,0-.54.3,1.57,1.57,0,0,0-.19.86,1.47,1.47,0,0,0,.19.84A.65.65,0,0,0,133,34.24Z" transform="translate(0 0)"/></svg>