<svg id="Layer_1" data-name="Layer 1" xmlns="http://www.w3.org/2000/svg" viewBox="0 0 204.83 57.18"><defs><style>.cls-1{fill:#78787a;}.cls-2{fill:#00adbb;}.cls-3{fill:#fff;}.cls-4{fill:#232c64;}</style></defs><title>CollegeAveLogo</title><path class="cls-1" d="M134.87,74.53c0-1.12-.41-1.9-1.67-1.9a1.58,1.58,0,0,0-1.76,1.73c0,3,5,1.22,5,5.12a3,3,0,0,1-3.32,3.18c-2.5,0-3.23-1.29-3.23-3.57h1.31c0,1.2.08,2.49,2,2.49a1.8,1.8,0,0,0,1.86-1.89c0-3-5.05-1.27-5.05-5.19a2.8,2.8,0,0,1,3.13-3c2,0,3,1,3,3Z" transform="translate(-23.42 -25.47)"/><path class="cls-1" d="M141.06,82.45h-1.31V72.93h-2.68V71.76h6.69v1.17h-2.7Z" transform="translate(-23.42 -25.47)"/><path class="cls-1" d="M144.63,71.76H146v7.51c0,1.57.5,2.31,1.81,2.31s1.82-.81,1.82-2.31V71.76h1.32v7.51c0,2-1.05,3.39-3.14,3.39s-3.13-1.19-3.13-3.39Z" transform="translate(-23.42 -25.47)"/><path class="cls-1" d="M152.65,71.76h2.86c3.32,0,3.74,2.39,3.74,5.34,0,2.7-.67,5.35-3.6,5.35h-3ZM154,81.37h1.38c2.27,0,2.53-2.34,2.53-4.25,0-2.07-.14-4.28-2.53-4.28H154Z" transform="translate(-23.42 -25.47)"/><path class="cls-1" d="M160.84,71.76h5.53v1.17h-4.21v3.35h4v1.17h-4v3.83h4.39v1.17h-5.71Z" transform="translate(-23.42 -25.47)"/><path class="cls-1" d="M167.77,71.76h1.71L173,80.68h0V71.76h1.32V82.45h-1.81l-3.43-8.66h0v8.66h-1.32Z" transform="translate(-23.42 -25.47)"/><path class="cls-1" d="M179.35,82.45H178V72.93h-2.68V71.76H182v1.17h-2.69Z" transform="translate(-23.42 -25.47)"/><path class="cls-1" d="M186.62,71.76h1.32v9.52h4.34v1.17h-5.66Z" transform="translate(-23.42 -25.47)"/><path class="cls-1" d="M200,77.1c0,2.7-.5,5.56-3.45,5.56s-3.44-2.86-3.44-5.56.49-5.55,3.44-5.55S200,74.41,200,77.1Zm-5.51,0c0,2.47.24,4.48,2.06,4.48s2.07-2,2.07-4.48-.24-4.47-2.07-4.47S194.5,74.63,194.5,77.1Z" transform="translate(-23.42 -25.47)"/><path class="cls-1" d="M203.69,71.76h1.77l2.87,10.69H207l-.76-2.94h-3.41l-.8,2.94h-1.37Zm-.64,6.67h2.87l-1.36-5.16h0Z" transform="translate(-23.42 -25.47)"/><path class="cls-1" d="M209.08,71.76h1.71l3.53,8.92h0V71.76h1.32V82.45h-1.81l-3.43-8.66h0v8.66h-1.32Z" transform="translate(-23.42 -25.47)"/><path class="cls-1" d="M221.94,74.53c0-1.12-.4-1.9-1.66-1.9a1.59,1.59,0,0,0-1.77,1.73c0,3,5.05,1.22,5.05,5.12a3,3,0,0,1-3.33,3.18c-2.5,0-3.23-1.29-3.23-3.57h1.32c0,1.2.07,2.49,2,2.49a1.8,1.8,0,0,0,1.86-1.89c0-3-5.05-1.27-5.05-5.19a2.8,2.8,0,0,1,3.13-3c2,0,3,1,3,3Z" transform="translate(-23.42 -25.47)"/><polygon class="cls-2" points="189.75 4.64 130.6 4.64 130.6 39.02 189.75 39.02 204.83 22.25 189.75 4.64"/><path class="cls-3" d="M166.53,35h4.09l6.64,24.7h-3.19l-1.76-6.78h-7.89l-1.83,6.78h-3.18Zm-1.48,15.43h6.64l-3.15-11.93h-.07Z" transform="translate(-23.42 -25.47)"/><path class="cls-3" d="M175.88,35h3.18l4.84,21.21H184L188.82,35H192l-6.23,24.7H181.9Z" transform="translate(-23.42 -25.47)"/><path class="cls-3" d="M193.59,35h12.76v2.7h-9.72V45.4h9.17v2.7h-9.17V57h10.14v2.7H193.59Z" transform="translate(-23.42 -25.47)"/><path class="cls-4" d="M46.34,50.24c-.41,6.92-3.13,13.28-11.12,13.28-10.41,0-11.8-9.8-11.8-19s1.7-19,11.8-19c7.48,0,10.61,4.21,10.81,11.39H41.32c-.11-4.16-1.44-7.69-6.1-7.69C29,29.17,28.14,36,28.14,44.5S29,59.83,35.22,59.83c5.48,0,6.25-5.13,6.4-9.59Z" transform="translate(-23.42 -25.47)"/><path class="cls-4" d="M58,34.6c7.94,0,9.89,6.72,9.89,14.46s-2,14.46-9.89,14.46-9.9-6.72-9.9-14.46S50.1,34.6,58,34.6Zm5.38,14.46c0-6-.87-11.08-5.49-11.08-4.35,0-5.28,5.13-5.28,11.08s.87,11.07,5.28,11.07C62.46,60.13,63.38,55,63.38,49.06Z" transform="translate(-23.42 -25.47)"/><path class="cls-4" d="M70.47,26.19h4.31V62.8H70.47Z" transform="translate(-23.42 -25.47)"/><path class="cls-4" d="M78.42,26.19h4.31V62.8H78.42Z" transform="translate(-23.42 -25.47)"/><path class="cls-4" d="M90,49.57c0,4.2,0,10.56,5.28,10.56,4.11,0,4.67-4.3,4.67-6.36h4.31c0,2.93-1.75,9.75-9.23,9.75-6.72,0-9.54-4.67-9.54-14.1,0-6.87,1.33-14.82,9.79-14.82s9.18,7.33,9.18,13.23v1.74Zm10-3.38V44.7c0-3.08-1-6.72-4.77-6.72-4.51,0-5,5.54-5,7.18v1Z" transform="translate(-23.42 -25.47)"/><path class="cls-4" d="M125.31,61.06c0,8.2-3.8,11.17-9.33,11.17-1.69,0-8.31,0-9-6.87h4.31c.21,2.51,2.15,3.49,4.41,3.49,5.54,0,5.33-4.26,5.33-6.15V59.11h-.1a6.54,6.54,0,0,1-6.2,3.69c-8,0-8.51-10.1-8.51-13.74,0-7.44,2-14.46,9-14.46a6.17,6.17,0,0,1,5.94,4.2h.11V35.32h4.1Zm-14.61-12c0,4.46.66,10,5,10,4.67,0,5.59-4.41,5.59-10,0-5.33-.92-10.77-5.54-10.77C111.72,38.29,110.7,42.5,110.7,49.06Z" transform="translate(-23.42 -25.47)"/><path class="cls-4" d="M132.44,49.57c0,4.2,0,10.56,5.28,10.56,4.1,0,4.67-4.3,4.67-6.36h4.31c0,2.93-1.75,9.75-9.23,9.75-6.72,0-9.54-4.67-9.54-14.1,0-6.87,1.33-14.82,9.79-14.82s9.18,7.33,9.18,13.23v1.74Zm9.95-3.38V44.7c0-3.08-1-6.72-4.77-6.72-4.51,0-5,5.54-5,7.18v1Z" transform="translate(-23.42 -25.47)"/><path class="cls-2" d="M220.35,31.43a3.29,3.29,0,0,1,.73-1.06,3.43,3.43,0,0,1,3.7-.71,3.51,3.51,0,0,1,1.07.71,3.45,3.45,0,0,1,.73,1.06,3.25,3.25,0,0,1,.27,1.32,3.32,3.32,0,0,1-.27,1.35,3.5,3.5,0,0,1-.73,1.07,3.31,3.31,0,0,1-1.07.7,3.43,3.43,0,0,1-2.62,0,3.24,3.24,0,0,1-1.08-.7,3.35,3.35,0,0,1-1-2.42A3.25,3.25,0,0,1,220.35,31.43Zm.55,2.47a2.8,2.8,0,0,0,.59.91,2.62,2.62,0,0,0,.88.61,2.84,2.84,0,0,0,2.19,0,2.72,2.72,0,0,0,.88-.61,2.78,2.78,0,0,0,.58-.91,3.06,3.06,0,0,0,.21-1.15,2.94,2.94,0,0,0-.21-1.12,2.78,2.78,0,0,0-.58-.91,2.86,2.86,0,0,0-.88-.6,2.84,2.84,0,0,0-2.19,0,2.75,2.75,0,0,0-.88.6,2.8,2.8,0,0,0-.59.91,2.94,2.94,0,0,0-.21,1.12A3.06,3.06,0,0,0,220.9,33.9Zm2.78-3.1a1.59,1.59,0,0,1,1,.28,1,1,0,0,1,.33.84.94.94,0,0,1-.29.78A1.32,1.32,0,0,1,224,33l1.12,1.74h-.65L223.42,33h-.65v1.69h-.61V30.8Zm-.27,1.74h.39a.89.89,0,0,0,.33-.08.53.53,0,0,0,.23-.19.74.74,0,0,0,.08-.36.58.58,0,0,0-.07-.32.57.57,0,0,0-.2-.18.83.83,0,0,0-.28-.08l-.31,0h-.81v1.25Z" transform="translate(-23.42 -25.47)"/></svg>