<svg id="Layer_1" data-name="Layer 1" xmlns="http://www.w3.org/2000/svg" viewBox="0 0 1044.9 183.2"><defs><style>.cls-1{fill:#0058bf;}.cls-2{fill:#f8ad9e;}</style></defs><title>CommonbondLogo</title><path class="cls-1" d="M302.2,132.6a35,35,0,0,1-13.1-12.5,33.13,33.13,0,0,1-4.9-17.4A33.48,33.48,0,0,1,289,85.1a35.23,35.23,0,0,1,13.1-12.6,37.63,37.63,0,0,1,18.2-4.7,36.48,36.48,0,0,1,18.2,4.6,35,35,0,0,1,13.1,12.5,33.23,33.23,0,0,1,4.8,17.6,33.73,33.73,0,0,1-4.7,17.5,35.46,35.46,0,0,1-13,12.5,37.63,37.63,0,0,1-18.2,4.7A35.83,35.83,0,0,1,302.2,132.6Zm27-14.7a18.55,18.55,0,0,0,6.3-24.6,15.91,15.91,0,0,0-6.3-6.3,17.6,17.6,0,0,0-8.9-2.3,17.87,17.87,0,0,0-8.9,2.3,16.16,16.16,0,0,0-6.3,6.4,18.76,18.76,0,0,0,0,18,17.51,17.51,0,0,0,15.3,8.9A16.62,16.62,0,0,0,329.2,117.9Z" transform="translate(-2.1 -1.3)"/><path class="cls-1" d="M604.2,132.8a35,35,0,0,1-13.1-12.5,33.13,33.13,0,0,1-4.9-17.4A33.48,33.48,0,0,1,591,85.3a35.23,35.23,0,0,1,13.1-12.6A37.63,37.63,0,0,1,622.3,68a36.48,36.48,0,0,1,18.2,4.6,35,35,0,0,1,13.1,12.5,33.23,33.23,0,0,1,4.8,17.6,33.73,33.73,0,0,1-4.7,17.5,35.46,35.46,0,0,1-13,12.5,37.63,37.63,0,0,1-18.2,4.7A36.08,36.08,0,0,1,604.2,132.8Zm27.1-14.7a18.55,18.55,0,0,0,6.3-24.6,15.91,15.91,0,0,0-6.3-6.3,17.6,17.6,0,0,0-8.9-2.3,17.87,17.87,0,0,0-8.9,2.3,16.16,16.16,0,0,0-6.3,6.4,18.76,18.76,0,0,0,0,18,17.51,17.51,0,0,0,15.3,8.9A16.87,16.87,0,0,0,631.3,118.1Z" transform="translate(-2.1 -1.3)"/><path class="cls-1" d="M839.5,132.8a35,35,0,0,1-13.1-12.5,33.13,33.13,0,0,1-4.9-17.4,33.48,33.48,0,0,1,4.8-17.6,35.23,35.23,0,0,1,13.1-12.6A37.63,37.63,0,0,1,857.6,68a36.48,36.48,0,0,1,18.2,4.6,35,35,0,0,1,13.1,12.5,33.23,33.23,0,0,1,4.8,17.6,33.73,33.73,0,0,1-4.7,17.5,35.46,35.46,0,0,1-13,12.5,37.63,37.63,0,0,1-18.2,4.7A36.08,36.08,0,0,1,839.5,132.8Zm27.1-14.7a18.55,18.55,0,0,0,6.3-24.6,15.91,15.91,0,0,0-6.3-6.3,17.6,17.6,0,0,0-8.9-2.3,17.87,17.87,0,0,0-8.9,2.3,16.16,16.16,0,0,0-6.3,6.4,18.76,18.76,0,0,0,0,18,17.51,17.51,0,0,0,15.3,8.9A16.62,16.62,0,0,0,866.6,118.1Z" transform="translate(-2.1 -1.3)"/><path class="cls-1" d="M241.3,132.6a35.21,35.21,0,0,1-13-12.4,34.61,34.61,0,0,1-.1-35,33.43,33.43,0,0,1,12.9-12.4,38,38,0,0,1,18.1-4.6,44.18,44.18,0,0,1,20.3,5.4l-5.8,14.9a28.25,28.25,0,0,0-13.3-3.7,18.26,18.26,0,0,0-9.4,2.4,17.36,17.36,0,0,0-6.4,6.5,18.25,18.25,0,0,0-2.3,9,17.87,17.87,0,0,0,2.3,8.9,16,16,0,0,0,6.5,6.4,17.63,17.63,0,0,0,9.5,2.3,29.61,29.61,0,0,0,14-4l6.1,14.8s-10.7,6-21.5,6A34.55,34.55,0,0,1,241.3,132.6Z" transform="translate(-2.1 -1.3)"/><path class="cls-2" d="M41.2,39.3c-29.3,0-39.1,9.8-39.1,39.1v33.5h0v72.6h79c29.3,0,39.1-9.8,39.1-39.1V111.9h0V39.3Z" transform="translate(-2.1 -1.3)"/><path class="cls-1" d="M92.8,1.3c-29.3,0-39.1,9.8-39.1,39.1V73.9h0v72.6h79c29.3,0,39.1-9.8,39.1-39.1V73.9h0V1.3Z" transform="translate(-2.1 -1.3)"/><path class="cls-1" d="M465.4,93.8v41.3H445.8V96.3c0-7.5-4.2-11.7-10.1-11.7-6.4,0-10.8,4.8-10.8,12.4v38.1H405.1V96.3c0-7.5-4-11.7-10-11.7-6.4,0-11,4.8-11,12.4v38.1H364.5V70.6l19.1-2.3v7.8a23,23,0,0,1,18.3-8.4c8.2,0,14.4,3.5,18.3,9.5,4.8-6.1,12.3-9.5,21.2-9.5C456.8,67.7,465.4,78,465.4,93.8Z" transform="translate(-2.1 -1.3)"/><path class="cls-1" d="M578.1,93.8v41.3H558.5V96.3c0-7.5-4.2-11.7-10.1-11.7-6.4,0-10.8,4.8-10.8,12.4v38.1H517.8V96.3c0-7.5-4-11.7-10-11.7-6.4,0-11,4.8-11,12.4v38.1H477.2V70.6l19.1-2.3v7.8a23,23,0,0,1,18.3-8.4c8.2,0,14.4,3.5,18.3,9.5,4.8-6.1,12.3-9.5,21.2-9.5C569.5,67.7,578.1,78,578.1,93.8Z" transform="translate(-2.1 -1.3)"/><path class="cls-1" d="M730.9,94.9v40.3H711.1V97.4c0-8.1-4.8-12.7-11.7-12.7-7.4,0-12.6,5.2-12.6,13.4v37.1H667.2V70.7l19-2.3v7.8c4.8-5.3,11.7-8.4,19.9-8.4C721.8,67.7,730.9,78.3,730.9,94.9Z" transform="translate(-2.1 -1.3)"/><path class="cls-1" d="M965.9,94.9v40.3H946.1V97.4c0-8.1-4.8-12.7-11.7-12.7-7.4,0-12.6,5.2-12.6,13.4v37.1H902.2V70.7l19-2.3v7.8c4.8-5.3,11.7-8.4,19.9-8.4C956.8,67.7,965.9,78.3,965.9,94.9Z" transform="translate(-2.1 -1.3)"/><path class="cls-1" d="M814.2,102.8c0,20.1-15.4,34.9-36.5,34.9-20.8,0-36.1-14.4-36.1-35.4V35.6l19.8-4.2V75.9A27.77,27.77,0,0,1,781,68.4C799.5,68.4,814.2,83.3,814.2,102.8Zm-18.6.1c0-10.1-7.5-17.8-17.5-17.8A17.49,17.49,0,0,0,760.3,103c0,10.1,7.5,17.8,17.5,17.8A17.49,17.49,0,0,0,795.6,102.9Z" transform="translate(-2.1 -1.3)"/><path class="cls-1" d="M1007.6,68.4a27.6,27.6,0,0,1,19.6,7.5V31.4l19.8,4.2v66.7c0,20.9-15.3,35.4-36.1,35.4-21.1,0-36.5-14.9-36.5-34.9C974.4,83.3,989.1,68.4,1007.6,68.4Zm3.2,52.4c10,0,17.5-7.6,17.5-17.8a17.49,17.49,0,0,0-17.8-17.9c-10,0-17.5,7.7-17.5,17.8A17.49,17.49,0,0,0,1010.8,120.8Z" transform="translate(-2.1 -1.3)"/></svg>