<svg id="Layer_1" data-name="Layer 1" xmlns="http://www.w3.org/2000/svg" viewBox="0 0 489 117.14"><defs><style>.cls-1{fill:#48bb88;}</style></defs><title>EarnestLogo</title><path class="cls-1" d="M39.4,31.19C19,31.19,0,48.15,0,73.75c0,27.43,19.45,43.39,41.4,43.39,19.45,0,32.25-11.47,36.57-25.6L61.68,86.38C59,94.37,53,100.52,41.4,100.52A21.69,21.69,0,0,1,19.28,79.4H78.47a28.93,28.93,0,0,0,.5-6.15C79,47.65,64.34,31.19,39.4,31.19ZM19.78,65.27A19.44,19.44,0,0,1,39.57,47.32c13.3,0,19.62,8.47,20,17.95Z"/><path class="cls-1" d="M153.45,61.45c0-16.13-9.48-30.26-34.42-30.26-20,0-32.58,12.47-34.08,26.43l17.62,4C103.4,53.47,109.05,47,119.2,47c10.63,0,15.29,5.49,15.29,12.31,0,2.82-1.33,5.15-6,5.82l-20.79,3.15c-13.79,2-24.44,10-24.44,24.44,0,12.8,10.48,24.44,27.44,24.44,13.13,0,21.11-6.65,24.94-12.8,0,6.48.66,9.81.83,10.31h17.95a74.62,74.62,0,0,1-1-13Zm-19,19.61c0,15.8-9.31,21-20.12,21-7.64,0-11.8-5-11.8-10.47,0-6.66,4.82-10,10.81-11l21.11-3.15Z"/><path class="cls-1" d="M183,46.65v-13H164.24v81h19.29V76.08c0-15.14,6.82-23.78,21.78-23.78a42.39,42.39,0,0,1,6.32.5V33.19a27.3,27.3,0,0,0-5.16-.5C195.84,32.69,186.86,37.84,183,46.65Z"/><path class="cls-1" d="M261.33,31.36c-9,0-18.62,3.82-23.94,13.13V33.68H218.6v81h19.29V67.93c0-10.64,5.82-19.12,16.79-19.12,12.13,0,16.62,8,16.62,18v47.88h19.29V63.44C290.59,45.65,281.11,31.36,261.33,31.36Z"/><path class="cls-1" d="M337,31.19c-20.46,0-39.41,17-39.41,42.56,0,27.43,19.45,43.39,41.4,43.39,19.45,0,32.25-11.47,36.58-25.6l-16.3-5.16c-2.66,8-8.64,14.14-20.28,14.14A21.68,21.68,0,0,1,316.85,79.4H376a28.22,28.22,0,0,0,.5-6.15C376.53,47.65,361.9,31.19,337,31.19ZM317.35,65.27a19.43,19.43,0,0,1,19.78-17.95c13.3,0,19.62,8.47,19.95,17.95Z"/><path class="cls-1" d="M489,58.18V41.06H472v-12h0a29.09,29.09,0,0,0-58.18,0c0,.73.06,1.45.11,2.17-.56,0-1.1-.07-1.69-.07-16.79,0-29.76,12-29.76,26.1,0,11.14,7.48,20.45,21.78,23.61l12,2.66c6.48,1.32,9.48,4.65,9.48,9,0,5-4.16,9.32-12.14,9.32-10.31,0-15.79-6.49-16.46-13.8L380.35,92.7c1,9.15,10,24.44,33.41,24.44,20.62,0,30.6-13.63,30.6-25.94,0-12-8-21.27-23.28-24.59l-12.3-2.5c-5-1-8.15-4.16-8.15-8.48,0-5,4.83-9.31,11.64-9.31a15.36,15.36,0,0,1,10,3.15c.1.09.28.22.28.22h0l9.5-9.21a15.86,15.86,0,0,1-4-6.2,15.56,15.56,0,0,1-.88-5.18A15.81,15.81,0,1,1,444,44.82V58.18h8.93V91.54c0,15.13,9.31,24.11,24.28,24.11,7,0,10.63-1.34,11.8-1.83v-16a39.47,39.47,0,0,1-6.65.67c-7.15,0-10.31-3-10.31-10.14V58.18Z"/></svg>