<svg id="Layer_1" data-name="Layer 1" xmlns="http://www.w3.org/2000/svg" viewBox="0 0 419 500"><defs><style>.cls-1{fill:#071b3c;}.cls-2{fill:#ff612a;}.cls-3{fill:#fff;stroke:#fff;stroke-miterlimit:10;stroke-width:0.2px;}</style></defs><path class="cls-1" d="M287.82,117.48c0,43.17-38.16,83.33-78.32,83.33a80.83,80.83,0,0,1-78.32-83.26v-.07A79.12,79.12,0,0,1,209.5,39.16a77.81,77.81,0,0,1,78.32,77.31Z" transform="translate(0 0)"/><path class="cls-1" d="M364.13,45.18,227.57,3a62,62,0,0,0-38.15,0L52.86,45.18a14.1,14.1,0,0,0,0,28.12l136.56,42.17a58.63,58.63,0,0,0,19.08,3,63,63,0,0,0,19.07-3L364.13,73.33a14.1,14.1,0,0,0,0-28.12Z" transform="translate(0 0)"/><path class="cls-2" d="M324,111.45a4.3,4.3,0,0,1-4-4V71.33l-75.31-13c-2,0-3-2-3-4s2-3,4-3l75.3,13a7.33,7.33,0,0,1,6,7v36.15C327,109.44,326,111.45,324,111.45Z" transform="translate(0 0)"/><path class="cls-1" d="M311.91,102.42a11,11,0,1,1,11,11h0A11.15,11.15,0,0,1,311.91,102.42Z" transform="translate(0 0)"/><path class="cls-2" d="M335,124.51A12.85,12.85,0,0,0,323,113.46h0a12.85,12.85,0,0,0-12,11.05l-3,42.27a5.63,5.63,0,0,0,5,6H333a5,5,0,0,0,5.1-4.9,5.06,5.06,0,0,0-.1-1.1l-3-42.17Z" transform="translate(0 0)"/><path class="cls-3" d="M244.64,143.58h0a55.78,55.78,0,0,1-12,9,46.46,46.46,0,0,1-25.1,7,52,52,0,0,1-35.14-16.07,6.13,6.13,0,0,0-8,0c-2,2-3,5,0,7a63.46,63.46,0,0,0,44.18,19.08,61.79,61.79,0,0,0,33.13-10c8-5,12-10,13-10a4.22,4.22,0,0,0-1-7A7.44,7.44,0,0,0,244.64,143.58Z" transform="translate(0 0)"/><path class="cls-1" d="M64.21,251.42v30.12a25.5,25.5,0,0,1-50.91,0V251.42a25.51,25.51,0,0,1,50.91-3.2A24.41,24.41,0,0,1,64.21,251.42Z" transform="translate(0 0)"/><path class="cls-2" d="M364.13,367.59C259,415.18,221.35,419,212,419h-5c-9.34,0-47-3.82-152.12-51.41a34.53,34.53,0,0,1-16.06-28.11V321c0-3.31,2.81-3.31,4.21-3.51a32.63,32.63,0,0,0,28.52-32.23V247.1a32.82,32.82,0,0,0-30.64-32.77c-.71,0-2.11,0-2.11-2.31V180.73a3.31,3.31,0,0,1,2.91-3.31l96.09,27.91c5.72,1.51,5.42,5.53,5.42,5.53V341.38c.5,5.33,3.21,6.23,7,8.34a116,116,0,0,0,118.48,0c3.81-2.11,6.53-3,7-8.34V210.86s0-4,5.42-5.53l96.09-27.91a3.31,3.31,0,0,1,2.91,3.31v31.43c0,2.41-1.4,2.31-2.11,2.31A32.82,32.82,0,0,0,347.9,247.2v38.06a32.63,32.63,0,0,0,28,32.13c1.41,0,4.22,0,4.22,3.51v18.43A34.54,34.54,0,0,1,364.13,367.59Z" transform="translate(0 0)"/><path class="cls-1" d="M354.79,251.42v30.12a25.5,25.5,0,0,0,50.9,0V251.42a25.5,25.5,0,0,0-50.9-3.2A24.41,24.41,0,0,0,354.79,251.42Z" transform="translate(0 0)"/><path class="cls-1" d="M0,455a1.23,1.23,0,0,1,1.16-1.3H28.42a1.23,1.23,0,0,1,1.3,1.16V462a1.39,1.39,0,0,1-1.3,1.38h-18v9.38H25.26a1.38,1.38,0,0,1,1.3,1.3v7a1.38,1.38,0,0,1-1.3,1.3H10.42V498.2a1.38,1.38,0,0,1-1.3,1.3H1.3A1.23,1.23,0,0,1,0,498.34V455Z" transform="translate(0 0)"/><path class="cls-1" d="M44.53,455a1.23,1.23,0,0,1,1.16-1.3h8.22a1.23,1.23,0,0,1,1.3,1.16v26.44a8.07,8.07,0,1,0,16.14,0V455a1.23,1.23,0,0,1,1.16-1.3h8.22A1.38,1.38,0,0,1,82,455v26.82C82,491.67,73.7,500,63.28,500a18.5,18.5,0,0,1-18.49-18.23V455Z" transform="translate(0 0)"/><path class="cls-1" d="M100.78,454.17a1.23,1.23,0,0,1,1.16-1.3h1.7l26,25h0V454.69a1.24,1.24,0,0,1,1.18-1.3h7.94a1.23,1.23,0,0,1,1.3,1.16v44.14a1.38,1.38,0,0,1-1.3,1.3h-1a2.66,2.66,0,0,1-.78-.26L111.2,474h0v24.22a1.4,1.4,0,0,1-1.31,1.3h-7.81a1.23,1.23,0,0,1-1.3-1.16V454.17Z" transform="translate(0 0)"/><path class="cls-1" d="M159.63,455a1.23,1.23,0,0,1,1.16-1.3h16a22.79,22.79,0,1,1,1,45.57H160.93a1.23,1.23,0,0,1-1.3-1.16V455ZM176,489.85c7.29,0,12.76-5.73,12.76-13.28,0-7.3-5.47-13.29-12.76-13.29h-6.25v26.31H176Z" transform="translate(0 0)"/><path class="cls-1" d="M216.14,455a1.23,1.23,0,0,1,1.16-1.3h7.95a1.4,1.4,0,0,1,1.31,1.3v43.23a1.39,1.39,0,0,1-1.31,1.3h-7.83a1.23,1.23,0,0,1-1.3-1.16v-.14Z" transform="translate(0 0)"/><path class="cls-1" d="M246.09,454.17a1.23,1.23,0,0,1,1.16-1.3H249l26,25h0V454.69a1.23,1.23,0,0,1,1.16-1.3h8a1.23,1.23,0,0,1,1.3,1.16v44.14a1.38,1.38,0,0,1-1.3,1.3H283a2.66,2.66,0,0,1-.78-.26L256.46,474h0v24.22a1.38,1.38,0,0,1-1.3,1.3h-7.74a1.23,1.23,0,0,1-1.3-1.16v-.14Z" transform="translate(0 0)"/><path class="cls-1" d="M325.25,453.13a24.94,24.94,0,0,1,15.89,6.25c.52.52.78,1.3,0,1.82l-5.21,5.47a1.27,1.27,0,0,1-1.8,0l0,0a12.19,12.19,0,0,0-8.59-3.13c-7,0-12.76,6-12.76,13.29a13.05,13.05,0,0,0,13,13,14.74,14.74,0,0,0,5.73-1v-3.64h-4.17A1.23,1.23,0,0,1,326,484v-6.7a1.24,1.24,0,0,1,1.17-1.31h13.13a1.4,1.4,0,0,1,1.31,1.31v17.44a1.94,1.94,0,0,1-.52,1A33.65,33.65,0,0,1,325,499.93a23.44,23.44,0,0,1-.67-46.88h.93Z" transform="translate(0 0)"/><path class="cls-2" d="M381.5,455a1.23,1.23,0,0,1,1.16-1.3h8.21a1.24,1.24,0,0,1,1.31,1.17v26.43a8.07,8.07,0,0,0,16.14,0V455a1.23,1.23,0,0,1,1.16-1.3h8.22A1.38,1.38,0,0,1,419,455v26.82c0,9.9-8.34,18.23-18.75,18.23a18.5,18.5,0,0,1-18.49-18.23V455Z" transform="translate(0 0)"/></svg>