<svg id="Layer_1" data-name="Layer 1" xmlns="http://www.w3.org/2000/svg" viewBox="0 0 338.5 86"><defs><style>.cls-1{fill:#60c659;}</style></defs><title>LendKeyLogo</title><rect class="cls-1" x="192.1" width="12.6" height="69"/><path class="cls-1" d="M867.3,269.1H851.8l-20,26.5a9.16,9.16,0,0,0,0,10.7l20,26.5h15.5l-24-31.8Z" transform="translate(-623.2 -263.8)"/><path class="cls-1" d="M949.4,285.5l-12.7,34.6-13.9-34.6H909.7L930.3,334l-.9,1.8a4.37,4.37,0,0,1-4.5,2.6,12.41,12.41,0,0,1-5.9-1.9l-4.6,9.9a22.44,22.44,0,0,0,12.2,3.4c7.2,0,12.2-3.7,15.9-13.5l19.2-50.7Z" transform="translate(-623.2 -263.8)"/><path class="cls-1" d="M887.7,283.9c-13.8,0-24.5,11.2-24.5,25s10.7,25,24.5,25c7.9,0,15-2.7,20.2-8.8l-8.4-7.3a15.34,15.34,0,0,1-11.7,5.3,12.93,12.93,0,0,1-12.5-9.3H911a32.27,32.27,0,0,0,.3-4.8c0-13.9-9.8-25.1-23.6-25.1m-12.6,19.8c1.8-5.3,6.2-9,12.1-9s10.9,3.6,12.1,9Z" transform="translate(-623.2 -263.8)"/><path class="cls-1" d="M635.8,266.5H623.2v56.9a8.71,8.71,0,0,0,8.7,8.7h26.9V319.5H635.9v-53Z" transform="translate(-623.2 -263.8)"/><path class="cls-1" d="M796.3,287.7a23.26,23.26,0,0,0-11.8-3.4,24.8,24.8,0,0,0-.3,49.6h.7c14.7-.3,24-11.2,24.1-24.4h0V263.8H796.4v23.9Zm12.4,21.7h0v0m-24.2,12.4a12.71,12.71,0,1,1,12.3-12.7c-.1,7-5.6,12.7-12.3,12.7" transform="translate(-623.2 -263.8)"/><path class="cls-1" d="M738.3,284.4c-7.8,0-11.1,3.7-12.5,6.1v-5.1H713.2v47.4h12.6V305.6c.1-7.4,6.4-9,9.4-9,2.7,0,8.2,1.2,8.2,9.3v26.9h12.2V301.7c0-11.7-8.5-17.3-17.3-17.3" transform="translate(-623.2 -263.8)"/><path class="cls-1" d="M684.9,283.9c-13.8,0-24.5,11.2-24.5,25s10.7,25,24.5,25c7.9,0,15-2.7,20.2-8.8l-8.4-7.3a15.34,15.34,0,0,1-11.7,5.3,12.93,12.93,0,0,1-12.5-9.3h35.7a32.27,32.27,0,0,0,.3-4.8c0-13.9-9.8-25.1-23.6-25.1m-12.6,19.8c1.8-5.3,6.2-9,12.1-9s10.9,3.6,12.1,9Z" transform="translate(-623.2 -263.8)"/></svg>