<?xml version="1.0" encoding="utf-8"?>
<!-- Generator: Adobe Illustrator 18.0.0, SVG Export Plug-In . SVG Version: 6.00 Build 0)  -->
<!DOCTYPE svg PUBLIC "-//W3C//DTD SVG 1.1//EN" "http://www.w3.org/Graphics/SVG/1.1/DTD/svg11.dtd">
<svg version="1.1" id="Layer_1" xmlns="http://www.w3.org/2000/svg" xmlns:xlink="http://www.w3.org/1999/xlink" x="0px" y="0px"
	 width="834px" height="215px" viewBox="0 0 834 215" enable-background="new 0 0 834 215" xml:space="preserve">
<g>
	<path fill="#1A1446" d="M188.9,118.7c0,5.3,2.3,6.9,10.2,6.9c7.8,0,11.5-2.3,16.6-12.9h1.8l-1.8,16.6h-48.9v-1.8
		c7.4-1.8,8.1-3.5,8.1-10.4V76c0-5.8-1.4-7.4-8.1-9v-1.9H197v1.8c-6.5,1.6-8.1,3-8.1,8.5L188.9,118.7L188.9,118.7z"/>
	<path fill="#1A1446" d="M238,120.3c0,4.2,2.1,6.5,6.7,6.9v1.8h-26.1v-1.6c5.5-1.2,6.9-2.5,6.9-7.8V97.4c0-5.1-1.4-6.5-7.4-7.6V88
		l18-1.6h1.8v33.9H238z M231.8,60.7c3.9,0,7.2,3.2,7.2,7.2c0,3.9-3.2,7.2-7.2,7.2c-3.9,0-7.2-3.2-7.2-7.2
		C224.7,64,227.9,60.7,231.8,60.7"/>
	<path fill="#1A1446" d="M265,96.7c4.2-3.9,6.5-4.8,9.7-4.8c7.4,0,12.2,6.9,12.2,17.1c0,13.4-6.2,18.9-15.2,18.9
		c-4.8,0-6.5-2.1-6.5-6.9V96.8H265V96.7z M265,60.7h-1.8l-16.9,1.2v1.8c3.9,0.7,6.2,2.5,6.2,6.2v59.3c6.2,1.2,12.5,1.6,20.1,1.6
		c20.1,0,27.9-10.6,27.9-23.3c0-12-8.5-21.5-19.6-21.5c-6,0-10.8,2.3-15.9,7.6L265,60.7L265,60.7z"/>
	<path fill="#1A1446" d="M318.8,102.5c0.2-7.8,3.7-13.2,8.8-13.2c5.1,0,8.8,5.5,9.2,13.2H318.8z M350.2,105
		c-1.6-11.3-9.9-18.7-21.7-18.7c-12.9,0-23.1,9.7-23.1,22.6c0,12.7,9.7,21.9,22.6,21.9c9.9,0,18.5-5.5,22.2-14.3h-1.8
		c-3.9,6-8.8,9-14.8,9c-7.6,0-15.2-6.9-14.8-20.5H350.2L350.2,105z"/>
	<path fill="#1A1446" d="M389.7,102.3c-3.7-3.5-6.5-5.3-9.2-5.3c-3.7,0-6,1.6-9.2,6v16.9c0,4.8,0.9,6.5,6.9,7.6v1.8h-26.3v-1.8
		c5.5-1.4,6.9-3,6.9-7.6V98.1c0-5.3-2.3-7.6-7.6-8.1v-1.8l18-1.6h1.8v13.2h0.2c4.2-9,8.5-13.2,13.6-13.2c2.8,0,5.3,1.2,7.4,3.5
		L389.7,102.3z"/>
	<path fill="#1A1446" d="M459.6,88v1.8c5.3,1.2,6.5,4.4,2.8,13.2l-5.8,13.2l-8.8-18c-2.5-5.3-2.5-7.6,2.1-8.3v-1.8h-24h-0.7h-12
		V72.2h-1.8c-5.8,7.4-12.7,14.1-17.8,17.3v2.1h7.4v26.5c0,9.5,6.2,13.2,14.1,13.2c6.2,0,10.2-2.1,13.2-7.4l-1.4-1.2
		c-2.1,2.3-3.9,3.2-6,3.2c-5.8,0-7.6-3.9-7.6-10.6v-24h11.1c6,0,7.8,2.1,10.4,7.8l15,31.9c-5.1,13.6-9.5,19.2-17.1,19.2
		c-1.6,0-3,0-5.5-0.9l-2.5,12.5c1.6,0.2,2.3,0.2,3.5,0.2c8.5,0,13.2-3.7,17.5-13.6l20.8-47.5c3.5-7.6,4.6-9.2,9.9-10.6v-1.8h-16.6
		V88H459.6z"/>
	<path fill="#1A1446" d="M579.2,117.7c0.7,5.5,3.5,8.8,9.7,9.9v1.8h-31.6v-1.8c6.9-1.8,8.3-5.8,6.9-14.1l-5.3-36.7h-0.2l-20.8,52.6
		h-2.3l-20.5-52.6h-0.2l-5.5,37.6c-1.2,7.4,0.2,12.5,7.6,12.9v1.8h-23.3v-1.8c6.9-0.2,9.9-4.2,11.3-14.1l6.5-41.8
		c-2.5-2.5-6-4.4-9.2-4.4v-1.8h23.1l16.9,42.2l17.1-42.2h21.7v2.1c-6.5,1.2-8.1,4.6-7.2,10.4L579.2,117.7z"/>
	<path fill="#1A1446" d="M594,97.4c0-4.6-1.6-6.2-6.5-7.2v-1.8l17.1-1.6h1.8v30.5c0,4.8,3.2,7.2,7.6,7.2c4.2,0,6.7-1.8,10.4-7.4
		V96.6c0-3.5-2.3-5.3-6.5-6.2v-1.8L635,87h1.8v32.8c0,5.5,1.2,6.7,6.7,8.3v1.8l-18.9,1.6v-10.2h-0.2c-4.6,6.9-9.7,10.2-16.4,10.2
		c-8.5,0-13.6-4.6-13.6-12.7V97.6H594V97.4z"/>
	<path fill="#1A1446" d="M652.8,91.7h-7.4v-2.1c5.1-3.2,12-9.7,17.8-17.3h2.1v15.9h13.6v3.2h-13.6v23.8c0,6.7,1.8,10.6,7.6,10.6
		c2.1,0,4.2-0.9,6-3.2l1.4,1.2c-3,5.1-7.2,7.4-13.2,7.4c-7.8,0-14.1-3.7-14.1-13.2V91.7H652.8z"/>
	<path fill="#1A1446" d="M686.8,97.4c0-4.6-1.6-6.2-6.5-7.2v-1.8l17.1-1.6h1.8v30.5c0,4.8,3.2,7.2,7.6,7.2c4.2,0,6.7-1.8,10.4-7.4
		V96.6c0-3.5-2.1-5.3-6.5-6.2v-1.8l17.1-1.6h1.8v32.8c0,5.5,1.2,6.7,6.5,8.3v1.8l-18.9,1.6v-10.2H717c-4.6,6.9-9.7,10.2-16.4,10.2
		c-8.5,0-13.6-4.6-13.6-12.7V97.6h-0.2V97.4z"/>
	<path fill="#1A1446" d="M764.3,122.6c-2.8,2.8-5.3,4.4-7.8,4.4c-3.5,0-5.8-3-5.8-7.4c0-5.5,3.2-8.1,13.4-12.5v15.5H764.3z
		 M776.8,102c0-11.3-9.2-15.5-18.2-15.5c-9.7,0-16.4,5.1-18.5,14.1h1.6c2.5-4.6,6.7-6.9,12.5-6.9c7.4,0,10.4,3.5,10.4,10.8
		c-10.2,3.7-26.5,4.6-26.5,15.7c0,6,5.5,10.8,12.5,10.8c5.1,0,8.8-1.2,12.9-4.8l0.9-0.9c2.1,4.2,4.8,5.8,9.9,5.8
		c6,0,9.7-2.8,10.2-8.1h-1.8c-0.5,2.5-1.6,3.9-3.2,3.9c-1.8,0-2.5-1.6-2.5-5.5V102H776.8z"/>
	<path fill="#1A1446" d="M792.9,72.3c0-5.8-1.8-7.8-7.8-8.3v-1.9l18.2-1.2h1.8v58.6c0,5.5,1.2,6.7,7.4,8.3v1.8h-27.4v-1.8
		c6-0.9,7.8-3,7.8-8.3V72.3z"/>
	<path fill="#1A1446" d="M151.7,85.7c-0.5-0.7-1.6-0.2-1.6-0.2l-19.2,7.4c-1.4-3.7-3.2-7.2-5.1-10.2l6.2-17.1c0,0,0.7-1.6,0-2.1
		s-1.8,0.7-1.8,0.7l-11.3,9.2c-4.4-4.6-9.7-8.5-15.5-11.3c-2.3-0.9-4.6-1.8-6.9-2.5L93,46.2c0,0-0.2-1.4-1.2-1.4
		c-0.9,0-1.2,1.4-1.2,1.4l-2.3,12c-2.5-0.2-5.1-0.5-7.6-0.5c-8.5,0-15.9,1.6-22.6,4.6c-2.8,1.2-5.5,2.8-7.8,4.6
		c-0.5,0.2-0.7,0.7-1.2,0.9c-2.3-6-4.2-10.8-4.6-12.5c1.4-1.2,3.9-5.5,4.6-8.3c0.9-4.2,0.7-6-0.2-9c-0.7-2.3-2.1-4.4-2.1-5.8
		c0-1.2,0.7-1.8,1.2-2.3c-0.2-1.4-1.2-2.1-2.3-2.3c-1.2-0.2-1.8,0.2-2.8,0.2c-0.2-0.5-0.7-0.5-0.5-1.8c0.5-2.3,5.1-3.5,8.5-4.8
		c4.6-1.8,7.2-5.1,7.4-10.4c0-3.9-2.1-6.7-4.8-8.1c-0.5,1.6-2.8,3.7-4.4,4.6c-1.6,0.9-3.7,1.2-5.3,0.9c0.2-2.8-0.9-5.3-3-6.2
		c-0.7,1.2-3.2,3-6.9,2.8c-3.7,0-3.9-0.9-9.2-0.9c-7.6,0-13.8,4.6-14.5,11.3c-0.5,4.4,1.2,8.1,2.5,9.9c-0.9,0.7-3.2,2.8-3.5,3.5
		c-0.5-0.7-2.1-1.4-3.9-0.2c0.5,0.9,0.5,2.1,0.2,3.2s-3,6.5-3.5,10.8C1.5,49.8,5.7,54.6,9.2,56c-0.7,1.2-0.9,2.5-0.5,3.5
		c0.5,0.7,1.2,1.4,2.5,1.4c-0.9,0.9-1.2,2.3-0.7,3.7c0.7,1.6,2.5,3.9,3.9,3.9c0,1.4,0.5,4.4,0.9,5.8c-0.5,0.9-1.2,1.8-0.9,3.7
		c0,1.8,1.4,3.5,3,3.9c0.5,0.9,0.7,2.1,1.2,2.5c0.5,0.7,0.9,1.4,2.3,2.1c1.2,0.7,2.5,1.4,4.2,1.4c1.6,0,3,0,3.7-0.2
		c0,0.5,0.2,4.6,0.5,9.2c-3.9,11.1-6,23.8-6,37.4l0,0c0,24.5,6.9,46.4,20.3,60.5c0,0,0.7,0.9,3,2.3c0,0,4.2-7.2,10.6-15.2
		c1.6-2.1,3.5-4.2,5.5-6c3.2-2.8,6.2-5.1,9-7.2c8.3-5.5,17.8-9.9,26.5-11.8C88,162.2,82.5,165,73,173.1c-6,5.1-15.5,14.3-22.2,26.5
		c1.4,1.2,3.2,2.1,5.3,2.3c1.4-1.6,8.5-14.5,19.4-25.2c22.2-20.5,48-25.4,61.6-25.2c0.7-5.5,1.2-11.5,1.2-17.5
		c0-9.9-0.9-19.2-3-27.9l16.2-18C151,87.5,152.2,86.4,151.7,85.7"/>
	<path fill="#FFFFFF" d="M31,77.6c-0.9-0.5-3.5-1.8-5.5-1.6c-2.1,0-3.9,0.5-5.5,1.6c-0.7-0.5-0.9-1.4-0.5-2.5
		c0.5-1.2,1.2-1.2,1.2-1.2L20,63.5c0,0,3-2.1,3.7-2.3s1.2-0.9,1.2-1.6c1.4,0.9,3.2,2.8,4.2,4.2c0.9,1.4,1.4,2.8,1.6,4.4
		c0,1.6,0,3.7-0.2,5.8c0.7,0.5,1.2,0.9,1.4,1.8C31.7,76.7,31.5,76.9,31,77.6"/>
	<path fill="#FFFFFF" d="M124.9,109.7c0-2.1-2.5-7.4-3.9-8.5l24.5-10.8L124.9,109.7z"/>
	<path fill="#FFFFFF" d="M57.8,69l20.8,18.7c-2.1,1.2-5.1,4.2-5.8,6.7L57.8,69z"/>
	<path fill="#FFFFFF" d="M70,106.2c-0.7,1.2-0.9,1.8-1.2,3c-0.2,1.4,0,2.1,0,3.2l-6.2-4.4c0-1.4-0.2-3.9-0.5-5.1c0-0.2,0-0.5,0-0.5
		L70,106.2z"/>
	<path fill="#FFFFFF" d="M34.9,108c-0.5-0.7-2.3-38.8-2.3-40.2l2.1-1.4v-0.5c-1.4,0-3.2-0.7-3.7-1.6l-0.5-11.5
		c-2.1-0.2-4.2-0.9-4.8-1.6c-0.9-0.9-1.8-2.1-0.7-4.4c0.9,0.7,3.9,1.6,6.7,1.6c0.5,0,1.6,1.2,2.3,1.4c0.7,0.2,2.1,0.9,2.5,1.2
		c0.5,0.2,0.9,1.4,0.9,1.8c0.2,0.5,19.2,49.6,19.4,50.1c0.2,0.5,1.4,8.8,1.4,9.5s3,7.2,3.5,7.8c-2.5,0-6.7,1.4-9.9,4.6
		c-3.2,3.2-6.2,10.4-6.9,13.6C44.6,137.1,35.4,108.7,34.9,108"/>
	<path fill="#FFFFFF" d="M58.9,155.1c-0.9,7.6-2.5,14.1-5.3,18.7c-1.8,3-6.7,9.2-8.5,11.3c1.8-3.7,3.2-12.9,3.2-19.9
		c0-4.6-1.4-14.8-0.2-21.5c1.4-7.2,3.5-11.3,8.1-15.7c2.5-2.3,7.4-5.1,14.8-3.2l5.8,10.8c-3-0.7-7.2,0-9.9,2.1
		C61.7,142,59.8,147.3,58.9,155.1"/>
	<path fill="#FFFFFF" d="M59.6,169.9c1.4-3.2,3.2-12.2,3.7-15.2c0.7-3.9,1.4-9.5,6-13.4c2.3-1.8,6-2.1,7.6-1.6l6.5,13.4
		c0.7,1.4,2.5,1.8,3.9,1.8C81.1,156.8,65.6,164.1,59.6,169.9"/>
	<path fill="#FFFFFF" d="M115.5,127.2c-1.2,1.6-0.7,3.2,0,4.4c0.7,1.2,4.2,7.6,4.2,7.6c1.2,3,1.8,4.4,3,6.2c1.8,0,3.9,0,6,0
		c-2.3-5.1-7.6-15-7.6-15l-0.5-8.1C119.2,123.3,116.6,125.6,115.5,127.2"/>
	<path fill="#FFFFFF" d="M87.5,84.5c2.5-0.5,8.5,0,10.4,0.9l-6-33.7L87.5,84.5z"/>
	<path fill="#FFFFFF" d="M37.5,53.1c-0.2-0.5-0.5-1.6-0.9-1.8c-0.7-0.2-1.8-0.9-2.5-1.2c-0.7-0.2-1.8-1.4-2.3-1.4
		c-2.5,0-5.5-0.9-6.7-1.6c-1.2,2.1-0.2,3.2,0.7,4.4c0.7,0.7,3,1.4,4.8,1.6l0.5,11.8c0.5,0.9,2.3,1.4,3.7,1.4v0.5l-2.1,1.4
		c0,1.4,1.8,39.5,2.3,40.2s9.7,29.1,9.9,30.7c0.7-3.2,3.7-10.4,6.9-13.6c3.5-3.2,7.4-4.8,9.9-4.6c-0.5-0.7-3.5-7.2-3.5-7.8
		s-1.2-8.8-1.4-9.5C56.6,102.7,37.7,53.8,37.5,53.1"/>
	<path fill="#FFFFFF" d="M25.4,43.9c5.3,0,7.8,2.3,9.2,3.5c0.2-1.8-0.2-3.5-1.8-4.8c-1.4-1.2-3.9-2.1-7.6-2.1
		c-2.5,0-5.1,0.7-6.7,2.1c-1.4,1.2-1.6,2.5-1.4,4.6C17.6,45.7,21.1,43.9,25.4,43.9"/>
	<path fill="#FFFFFF" d="M15.8,15.9c-0.2,2.1,0.5,4.2,1.4,5.5c0.5,0.7,1.8,2.1,2.8,2.1c1.4,0,2.5-2.5,5.8-2.5c2.1,0,3.5,3,5.1,3
		c1.4,0,2.1-1.2,3.5-1.4c1.2-0.2,1.6,0.5,2.3,1.2c0.5-1.2,1.2-1.8,3-3.2c2.1-1.6,9.2-3,12.5-5.8c1.6-1.4,1.8-3.9,1.4-5.5
		c-1.2,1.6-4.4,3.5-7.6,3.5c-1.6,0-5.3-0.7-6.7-1.4c0.7-1.2,0.9-2.5,0.2-3.7c-0.9,0.7-5.5,1.2-7.2,1.2c-1.6,0-5.1-0.7-7.6-0.5
		C18.8,8.6,16,12.5,15.8,15.9"/>
	<path fill="#FFFFFF" d="M25.7,33.7c12.5,0.2,18,6,18.2,10.6c0.7-1.4,0.5-2.8,0.5-4.4c0-1.2-1.8-4.8-2.1-6c0-1.2,0.2-2.1,0.5-3
		c-0.7,0.2-3.5,1.2-4.6,0.2c-1.2-0.9-0.5-3.5-2.1-4.2s-4.2,1.4-6,1.2c-1.6-0.2-3-2.5-4.8-2.5s-2.5,2.1-4.6,2.5
		c-1.6,0.5-3.7-0.7-4.6-0.5c-1.2,0-1.6,0.9-2.1,1.8c-0.5,0.9-0.9,1.4-2.1,1.8c-0.9,0.2-2.5-0.7-3.2-0.5c0.5,0.5,0.9,2.8,0.2,4.2
		c-0.7,1.6-2.1,3.5-2.1,5.5c-0.2,1.8,0.5,2.5,0.9,3.9C7.4,37.9,14.8,33.5,25.7,33.7"/>
	<path fill="#FFFFFF" d="M17.8,57.5c-0.9,0.2-2.8,1.6-3.5,3c0.2,0.9,1.4,3.2,2.3,3.7c0.2-0.9,1.4-2.8,1.8-3.2
		c0.7-0.5,1.6-0.9,2.1-1.2c0.7-0.2,0.9-0.7,0.9-1.4s0-1.2-0.5-1.8c0.7,0,1.8,0,2.1-0.5c0.5-0.5,0.7-1.2,0.7-1.8s-0.2-0.9-0.9-0.9
		c-0.7,0-2.8-0.2-3.7,0c0,0,1.6-0.9,2.1-1.2c0.5-0.2,0.7-0.7,0.7-1.2s0-1.4-0.2-2.3c-2.3,0-6.5,2.1-7.6,3.2L15,54h-1.6
		c-0.2,1.2,0,2.8,0.5,3.7C15.3,57.5,16.9,57.5,17.8,57.5"/>
	<path fill="#FFFFFF" d="M119.4,106.7c-0.2-1.6-4.2-6-10.6-11.1c-5.1-3.9-12.5-7.6-18.7-7.6c-10.4,0-14.5,7.2-15.5,10.8
		c-0.5,2.3-0.5,4.6,0,6c-1.6,1.4-2.3,2.5-2.5,4.2c-0.2,1.2,0,2.8,1.2,3.9c0-1.6,0.9-3.2,1.8-4.4c0.9-1.4,2.5-1.8,3.9-2.8l0.2,2.8
		c-1.4,0.7-3,2.3-3,3.2v4.6l3.5-2.1l0.7,1.4l-1.4,8.3l2.1-0.5l3.7,1.4l-3.5,3.2v1.2c0,0,0.5-0.7,1.8-0.7c1.2,0,4.4,1.4,4.4,1.4
		l-0.2,0.7h-1.4h-4.8c-0.2,0.9,0.5,1.4,0.9,1.8c0.9-0.2,1.6-0.7,2.1-0.7s1.6,0.2,2.5,0.5l-1.2,1.6c0,0-0.7,0.5-1.6,0.2
		c-0.7-0.2-1.2,0.7-1.2,1.4s0.5,2.5,0.5,2.5c0.7,2.5,3.2,2.1,3.7,2.1c1.6-0.2,7.4-2.1,7.4-2.1l-5.3,7.6l2.3,8.1
		c3.5-1.4,14.1-5.3,25.6-7.2c-1.2-2.1-1.4-3-3-6l-6-13.6l0.9-2.1c1.4,0.5,3.2-0.5,4.6-1.6c1.4-1.2,2.8-3,3.5-4.2
		c-0.9-0.5-1.6-0.5-2.3,0.2c-0.7,0.5-1.2,1.4-2.3,0.9s-0.5-1.6-0.5-2.8c0.2-1.2-1.2-1.2-2.1-0.2c-0.9,0.9-3,0.5-4.2-0.9
		c-1.4-1.4-7.6-6.5-9.7-7.8c-3.2-1.8-7.6-2.3-10.6-1.8c-1.8,0.2-3.2,1.2-3.9,0.7l-2.3-3.7l0.5-0.2c0.9,0.5,1.6,0.9,2.8,0.7
		c1.2-0.5,4.4-1.2,7.6-1.2c4.6,0,10.4,1.6,12.9,2.8c0,3,6.2,6.9,9,7.4c2.3,0.2,3.7-0.2,5.1-1.2l-6-5.3l3.2-3.9c0,0,5.1,4.8,5.8,5.8
		C119.9,108.3,119.6,107.4,119.4,106.7 M83.4,112.9c0,0,2.5-1.4,5.1-2.1c3.7-0.7,7.6,1.4,10.4,3.7l-0.5,0.9l-4.2,0.9
		c-0.7-0.7-2.3-0.9-3.9-0.9c-1.4,0-2.5,0.7-2.5,0.7l0.7,1.4l-1.8,0.5c-0.9-1.2-2.1-2.3-3.2-2.8v-2.3H83.4z M77.2,103.4
		c-1.2-3.5,1.8-7.2,3-8.3l2.1,4.6C80.6,100.4,78.3,102.3,77.2,103.4 M95.9,99.5c-1.8-1.4-8.1-1.2-10.6-0.5l-1.8-5.5
		c1.4-1.2,4.2-1.8,6.7-1.8s5.1,0.7,7.2,1.6L95.9,99.5z M108.1,105c-2.5-1.6-7.6-4.2-9.2-4.6l2.3-5.8c1.8,0.9,8.8,5.1,9.9,6.2
		L108.1,105z"/>
	<path fill="#FFFFFF" d="M107.2,89.6c2.3,0.9,7.2,5.1,8.5,6l12.5-26.5L107.2,89.6z"/>
	<path fill="#1A1446" d="M825,115c3.7,0,7.2,3,7.2,7.4s-3.5,7.4-7.2,7.4s-7.2-3-7.2-7.4C817.9,118,821.3,115,825,115 M825,128.1
		c3,0,5.5-2.3,5.5-5.8s-2.5-5.8-5.5-5.8s-5.5,2.3-5.5,5.8C819.7,125.8,822,128.1,825,128.1 M822.3,118.4h3c2.1,0,3,0.7,3,2.3
		c0,1.4-0.9,2.1-2.1,2.1l2.1,3.5h-1.4l-2.1-3.5h-1.2v3.5h-1.4v-7.9H822.3z M823.9,121.9h1.4c0.9,0,1.6-0.2,1.6-1.2s-0.9-1.2-1.6-1.2
		h-1.4V121.9z"/>
	<rect x="167.6" y="152.4" fill="#1A1446" width="250.4" height="2.5"/>
	<rect x="452.5" y="152.4" fill="#1A1446" width="361.2" height="2.5"/>
	<g>
		<path fill="#1A1446" d="M311.9,176.8h6.5v34.9h-6.5V176.8z"/>
		<path fill="#1A1446" d="M337.8,176.8h6l14.5,24.7l0,0v-24.7h6v34.9h-6L343.8,187l0,0v24.7h-6V176.8z"/>
		<path fill="#1A1446" d="M385.1,201.3c2.5,3.7,6.2,5.3,10.6,5.3c3.2,0,7.4-1.2,7.4-4.4c0-2.8-2.5-3.5-7.2-4.6l-3.9-0.9
			c-5.5-1.4-10.4-3.2-10.4-9.7c0-7.4,6.9-10.8,13.4-10.8c6,0,10.8,2.3,14.5,6.9l-5.5,4.2c-1.6-3.2-4.8-5.1-9.2-5.1
			c-3.7,0-6.7,1.4-6.7,3.9c0,3,3.2,3.5,7.2,4.4l4.2,0.9c5.1,1.2,10.2,3.2,10.2,9.9c0,8.5-8.1,11.5-15.2,11.5c-5.8,0-11.8-2.5-15-7.4
			L385.1,201.3z"/>
		<path fill="#1A1446" d="M454.8,201.1c0,7.2-5.5,11.5-14.1,11.5c-8.3,0-14.1-4.6-14.1-11.5v-24h6.5v22.4c0,4.2,1.8,6.9,7.4,6.9
			c5.8,0,7.4-2.8,7.4-6.9v-22.4h6.5v24H454.8z"/>
		<path fill="#1A1446" d="M473.5,176.8H488c7.4,0,11.8,4.4,11.8,10.6c0,7.8-5.3,9.7-6.9,10.4l7.8,14.1h-7.6l-6.7-12.9h-6.2v12.9
			h-6.5v-35.1H473.5z M479.9,193.2h7.2c3.2,0,5.8-1.8,5.8-5.3c0-3.2-2.1-5.3-6.7-5.3H480L479.9,193.2L479.9,193.2z"/>
		<path fill="#1A1446" d="M525.2,176.8h7.6l11.5,34.9h-6.9l-2.1-6.7h-13.2l-2.1,6.7h-6.9L525.2,176.8z M528.9,183.3L528.9,183.3
			l-4.8,15.9h9.7L528.9,183.3z"/>
		<path fill="#1A1446" d="M559.1,176.8h6l14.5,24.7l0,0v-24.7h6v34.9h-5.8L565.3,187l0,0v24.7h-6.2V176.8z"/>
		<path fill="#1A1446" d="M627,188.6c-0.5-3.9-3.7-6.5-7.6-6.5c-6.9,0-9.9,6.2-9.9,12.2s3,12.2,9.9,12.2c4.6,0,7.2-3,8.3-7.2l6,2.8
			c-2.8,6.9-7.4,10.4-14.3,10.4c-11.1,0-16.6-8.5-16.6-18.2c0-9.9,6.2-18.2,16.6-18.2c6.9,0,12.2,3.7,14.1,10.8L627,188.6z"/>
		<path fill="#1A1446" d="M647.8,176.8h24.7v6h-18v7.8h16.6v5.8h-16.6v9h19.4v6H648v-34.6L647.8,176.8L647.8,176.8z"/>
	</g>
</g>
</svg>
